# xmcd CD database file
#
# Track frame offsets:
#	150
#	23025
#	40350
#	59600
#	80202
#	102612
#	124650
#	148200
#	163155
#	180625
#	207527
#	230225
#	253582
#	265655
#	295732
#	318002
#
# Disc length: 4646 seconds
#
# Revision: 0
# Processed by: cddbd v1.5.2PL0 Copyright (c) Steve Scherf et al.
# Submitted via: CDex 1.70beta2
#
DISCID=f7122410
DTITLE=Art Tatum -  The greatest piano of them all
DYEAR=1900
DGENRE=Jazz
TTITLE0=Deep purple
TTITLE1=Somebody loves me
TTITLE2=I didn't know what time it was
TTITLE3=What's new?
TTITLE4=You're blase
TTITLE5=You're mine, you
TTITLE6=That old feeling
TTITLE7=Heat wave
TTITLE8=She's funny that way
TTITLE9=Stars fell on Alabama
TTITLE10=Blue moon
TTITLE11=There's a small hotel
TTITLE12=Caravan
TTITLE13=The way you look tonight
TTITLE14=You go to my head
TTITLE15=Lover, come back to me
EXTD=
EXTT0=
EXTT1=
EXTT2=
EXTT3=
EXTT4=
EXTT5=
EXTT6=
EXTT7=
EXTT8=
EXTT9=
EXTT10=
EXTT11=
EXTT12=
EXTT13=
EXTT14=
EXTT15=
PLAYORDER=
